<svg width="942" height="44" viewBox="0 0 942 44" fill="none" xmlns="http://www.w3.org/2000/svg">
<path fill-rule="evenodd" clip-rule="evenodd" d="M196.555 5.07022H192.008V10.6318H189.557V14.645H192.008V28.6924H196.555V14.645H199.043V10.6318H196.555V5.07022ZM185.295 2.5C183.625 2.5 182.31 3.80277 182.31 5.49277C182.31 7.14674 183.625 8.45022 185.295 8.45022C187.035 8.45022 188.351 7.14674 188.351 5.49277C188.351 3.80277 187.035 2.5 185.295 2.5ZM257.583 10.2107C256.803 10.2107 256.198 9.6119 256.198 8.83674C256.198 8.09742 256.803 7.49865 257.583 7.49865C258.33 7.49865 258.933 8.09742 258.933 8.83674C258.933 9.6119 258.33 10.2107 257.583 10.2107ZM257.583 7.28853C256.696 7.28853 255.986 7.99236 255.986 8.83674C255.986 9.71696 256.696 10.4215 257.583 10.4215C258.437 10.4215 259.147 9.71696 259.147 8.83674C259.147 7.99236 258.437 7.28853 257.583 7.28853ZM204.334 17.7795C204.938 15.3857 206.786 14.0476 209.166 14.0476C211.547 14.0476 213.321 15.3497 213.891 17.7795H204.334ZM209.272 10.0689C203.803 10.0689 199.646 14.224 199.646 19.751C199.646 25.2073 203.447 29.2209 209.343 29.2209C212.611 29.2209 215.525 28.0244 217.656 25.7703L214.601 22.7789C213.109 24.1874 211.51 25.2073 209.45 25.2073C206.964 25.2073 205.081 23.7988 204.442 21.441H218.614V20.3498C218.614 14.188 214.779 10.0689 209.272 10.0689ZM249.519 10.0689C247.281 10.0689 245.364 10.9131 244.013 12.3576V2.9937H239.466V28.6924H244.013V18.8706C244.013 16.2659 245.684 14.4695 248.454 14.4695C251.047 14.4695 252.468 16.0535 252.468 18.8706V28.6924H257.015V18.061C257.015 13.0623 253.852 10.0689 249.519 10.0689ZM257.228 8.80213V8.2378H257.583C257.868 8.2378 257.975 8.34445 257.975 8.52067C257.975 8.69636 257.868 8.80213 257.583 8.80213H257.228ZM258.187 8.52067C258.187 8.16876 257.938 8.02697 257.583 8.02697H257.015V9.64633H257.228V9.01296H257.583L257.975 9.64633H258.222L257.797 8.97853C258.046 8.9418 258.187 8.80213 258.187 8.52067ZM229.911 14.4349C231.829 14.4349 233.392 15.4202 234.6 16.7943L237.761 13.6957C235.986 11.4774 233.179 10.0689 229.983 10.0689C224.477 10.0689 220.142 14.224 220.142 19.6443C220.142 25.0663 224.477 29.2209 229.983 29.2209C233.179 29.2209 235.986 27.812 237.761 25.596L234.6 22.4974C233.428 23.835 231.829 24.8554 229.876 24.8554C226.962 24.8554 224.724 22.6027 224.724 19.6443C224.724 16.6869 226.962 14.4349 229.911 14.4349ZM183.057 28.6924H187.605V10.6318H183.057V28.6924ZM150.163 24.8554C147.249 24.8554 144.94 22.5681 144.94 19.6099C144.94 16.6869 147.249 14.4349 150.163 14.4349C153.111 14.4349 155.42 16.6869 155.42 19.6443C155.42 22.6027 153.111 24.8554 150.163 24.8554ZM150.163 10.0689C144.656 10.0689 140.323 14.224 140.323 19.6443C140.323 25.0663 144.656 29.2209 150.163 29.2209C155.669 29.2209 160.002 25.0663 160.002 19.6443C160.002 14.224 155.669 10.0689 150.163 10.0689ZM134 28.6924H138.548V2.9937H134V28.6924ZM171.405 24.8554C168.493 24.8554 166.184 22.5681 166.184 19.6099C166.184 16.6869 168.493 14.4349 171.405 14.4349C174.354 14.4349 176.663 16.6869 176.663 19.6443C176.663 22.6027 174.354 24.8554 171.405 24.8554ZM181.068 14.224V10.6318H174.673C173.644 10.2813 172.543 10.0689 171.405 10.0689C165.9 10.0689 161.567 14.224 161.567 19.6443C161.567 25.0663 165.9 29.2209 171.405 29.2209C176.911 29.2209 181.246 25.0663 181.246 19.6443C181.246 17.814 180.748 16.0191 179.753 14.681L181.068 14.224ZM171.405 35.1001C168.493 35.1001 166.184 32.8475 166.184 29.9254H161.567C161.567 35.3471 165.9 39.5 171.405 39.5C176.911 39.5 181.246 35.3471 181.246 29.9254H176.627C176.627 32.8475 174.317 35.1001 171.405 35.1001Z" fill="#969696"/>
<path fill-rule="evenodd" clip-rule="evenodd" d="M301.992 29.8952C302.233 30.025 302.541 30.0122 302.754 29.8198L302.762 29.8268C303.406 29.2508 304.576 28.2283 305.235 27.6732C305.498 27.4577 305.451 27.1068 305.246 26.8118C305.183 26.7246 305.119 26.639 305.057 26.554C304.529 25.8412 304.028 25.1643 304.028 23.8067V18.7548C304.028 18.5809 304.029 18.4082 304.03 18.2368C304.042 16.2978 304.052 14.5288 302.611 13.1743C301.373 11.9807 299.322 11.5596 297.753 11.5596C294.684 11.5596 291.259 12.7116 290.541 16.5247C290.465 16.9297 290.759 17.1427 291.023 17.2022L294.148 17.5425C294.441 17.5278 294.653 17.2387 294.709 16.9466C294.977 15.6331 296.071 14.9994 297.301 14.9994C297.964 14.9994 298.719 15.2451 299.111 15.8417C299.516 16.4389 299.51 17.2332 299.504 17.9472C299.503 18.0304 299.503 18.1125 299.503 18.1931V18.6143C299.213 18.647 298.909 18.678 298.595 18.7099C296.891 18.8838 294.917 19.085 293.439 19.7376C291.418 20.6152 290 22.405 290 25.0375C290 28.4067 292.111 30.0912 294.827 30.0912C297.12 30.0912 298.374 29.5472 300.144 27.7343C300.233 27.8646 300.314 27.9848 300.389 28.0979C300.809 28.7241 301.085 29.1369 301.992 29.8952ZM299.503 22.0793C299.503 22.0245 299.503 21.9692 299.503 21.9136V21.2118C297.17 21.2118 294.706 21.7142 294.706 24.4758C294.706 25.8794 295.43 26.8272 296.667 26.8272C297.572 26.8272 298.387 26.266 298.899 25.3534C299.505 24.2796 299.504 23.2699 299.503 22.0793ZM345.031 29.8198C344.817 30.0122 344.51 30.025 344.269 29.8952C343.361 29.1364 343.085 28.7234 342.665 28.0964L342.665 28.0961C342.59 27.9835 342.51 27.864 342.42 27.7343C340.65 29.5472 339.396 30.0912 337.103 30.0912C334.388 30.0912 332.276 28.4067 332.276 25.0375C332.276 22.405 333.694 20.6152 335.715 19.7376C337.194 19.085 339.167 18.8837 340.872 18.7099C341.185 18.678 341.489 18.647 341.78 18.6143V18.1931C341.78 18.113 341.78 18.0314 341.781 17.9488V17.9484C341.787 17.2341 341.793 16.4392 341.387 15.8417C340.995 15.2451 340.241 14.9994 339.577 14.9994C338.347 14.9994 337.254 15.6331 336.985 16.9466C336.929 17.2387 336.717 17.5278 336.425 17.5425L333.299 17.2022C333.035 17.1427 332.742 16.9297 332.818 16.5247C333.536 12.7116 336.961 11.5596 340.03 11.5596C341.598 11.5596 343.65 11.9807 344.887 13.1743C346.328 14.5285 346.318 16.2972 346.307 18.2358C346.306 18.4075 346.305 18.5806 346.305 18.7548V23.8067C346.305 25.1633 346.805 25.8403 347.332 26.5525L347.332 26.5527C347.395 26.6382 347.459 26.7241 347.522 26.8118C347.728 27.1068 347.774 27.4577 347.511 27.6732C346.853 28.2283 345.682 29.2508 345.038 29.8268L345.031 29.8198ZM341.779 21.9136L341.78 22.0775C341.781 23.2689 341.782 24.279 341.176 25.3534C340.663 26.266 339.849 26.8272 338.943 26.8272C337.707 26.8272 336.983 25.8794 336.983 24.4758C336.983 21.7142 339.446 21.2118 341.779 21.2118V21.9136ZM429.785 29.2673C429.785 29.5932 430.052 29.8555 430.387 29.8658H431.797C432.12 29.8448 432.376 29.587 432.376 29.2681L432.377 19.6751C432.377 18.2042 432.527 16.7682 433.31 15.6125C433.919 14.7022 434.946 13.9217 435.961 13.8647C436.94 13.9165 437.874 14.5698 438.395 15.5772C438.846 16.453 438.906 17.6087 438.906 18.5893L438.913 29.2673C438.913 29.5932 439.181 29.8555 439.515 29.8658H440.925C441.22 29.8463 441.458 29.6307 441.499 29.3549V20.2702L441.498 20.1044C441.497 18.5033 441.497 17.2459 442.341 15.8575C443.009 14.7423 444.042 13.921 445.168 13.8647C446.176 13.9158 447.113 14.6062 447.606 15.7174C448.039 16.6952 448.034 17.8151 448.028 18.8978C448.028 19.0173 448.027 19.1363 448.027 19.2547V29.349C448.068 29.6366 448.318 29.8562 448.623 29.8658H450.04C450.364 29.8448 450.619 29.587 450.619 29.2681L450.619 19.2547L450.619 19.0722V19.072C450.62 17.4652 450.622 15.5934 449.897 14.1766C449.114 12.6358 447.609 11.6203 446.044 11.6203L445.915 11.6221L445.799 11.6203C443.585 11.6203 441.906 13.2089 441.015 15.4463C440.444 13.1802 438.905 11.6203 436.802 11.6203L436.683 11.6221L436.559 11.6203C434.576 11.6203 433.008 13.1268 432.166 15.0498V12.6229C432.14 12.3143 431.872 12.0749 431.546 12.0749L430.363 12.0753C430.055 12.0951 429.808 12.329 429.785 12.6226V29.2673ZM308.337 29.8614H311.562C311.906 29.8614 312.185 29.5947 312.184 29.2622L312.185 20.4409L312.185 20.2316C312.182 18.3277 312.178 15.8531 314.413 15.8531C316.469 15.8531 316.434 18.0589 316.406 19.853V19.853V19.8531V19.8531V19.8532V19.8532V19.8533V19.8533V19.8534C316.403 20.0557 316.4 20.2528 316.4 20.4409L316.403 29.2637C316.403 29.5826 316.659 29.8404 316.982 29.8614H320.203C320.547 29.8614 320.825 29.5947 320.825 29.2622V20.4409C320.825 20.3697 320.825 20.296 320.825 20.2201C320.823 19.2876 320.82 18.0313 321.126 17.2541C321.457 16.4133 322.27 15.888 323.053 15.888C323.986 15.888 324.709 16.2033 324.949 17.324C325.071 17.8616 325.055 19.108 325.044 19.9362L325.044 19.937C325.042 20.1335 325.04 20.3065 325.04 20.4409L325.04 29.2637C325.04 29.5826 325.296 29.8404 325.619 29.8614H328.841C329.184 29.8614 329.463 29.5947 329.463 29.2622L329.465 18.7599C329.465 18.5023 329.47 18.2395 329.474 17.9742C329.5 16.4008 329.528 14.7403 328.652 13.5417C327.749 12.2809 326.274 11.7207 324.919 11.7207C323.023 11.7207 321.247 12.7013 320.464 14.8026C319.561 12.7013 318.296 11.7207 316.28 11.7207C314.293 11.7207 312.818 12.7013 312.035 14.8026H311.975V12.6295C311.955 12.3261 311.703 12.087 311.388 12.0708L308.385 12.0716C308.041 12.0716 307.763 12.3379 307.763 12.6707L307.761 29.3133C307.785 29.609 308.03 29.8411 308.337 29.8614ZM350.23 15.0082V12.6303C350.231 12.2684 350.503 12.0271 350.829 12.0278L361.43 12.0267C361.768 12.0267 362.041 12.2746 362.041 12.6273L362.041 14.6669C362.038 15.0089 361.752 15.4555 361.242 16.1639L355.752 24.0466C357.79 23.9987 359.946 24.3051 361.798 25.3519C362.216 25.5877 362.327 25.9375 362.36 26.2803V28.8175C362.36 29.1673 361.98 29.5719 361.58 29.3615C358.317 27.6431 353.987 27.4547 350.38 29.3821C350.011 29.5796 349.625 29.1809 349.625 28.8311V26.419C349.625 26.0331 349.632 25.3729 350.019 24.7844L356.381 15.6078L350.842 15.607C350.504 15.607 350.232 15.3643 350.23 15.0082ZM350.103 33.12C352.059 32.8847 356.389 32.364 357.163 33.3593C357.937 34.3557 356.303 38.4587 355.572 40.2957L355.571 40.2996C355.349 40.855 355.824 41.079 356.324 40.6586C359.572 37.9268 360.411 32.2025 359.746 31.3757C359.086 30.5569 353.408 29.85 349.942 32.2974C349.409 32.6737 349.501 33.1927 350.092 33.1213L350.103 33.12ZM332.254 43.1322C339.812 43.1322 348.589 40.7428 354.643 36.2507C355.645 35.5073 354.787 34.3921 353.763 34.8291C346.976 37.7234 339.6 39.1237 332.89 39.1237C322.943 39.1237 313.312 36.3794 305.524 31.8226C304.843 31.4238 304.338 32.1271 304.904 32.6413C312.123 39.1954 321.661 43.1322 332.254 43.1322ZM371.197 15.1175C368.818 15.1175 368.668 18.3745 368.668 20.4056L368.668 20.4762C368.667 22.5358 368.667 26.7798 371.167 26.7798C373.665 26.7798 373.785 23.2775 373.785 21.1412C373.785 19.7405 373.725 18.0593 373.304 16.7285C372.942 15.5728 372.22 15.1175 371.197 15.1175ZM371.167 11.7207C375.953 11.7207 378.542 15.8531 378.542 21.1062C378.542 26.1839 375.683 30.2119 371.167 30.2119C366.47 30.2119 363.911 26.0791 363.911 20.9312C363.911 15.7479 366.5 11.7207 371.167 11.7207ZM381.536 29.8614H384.749C385.093 29.8614 385.371 29.5947 385.377 29.2622V20.3007C385.377 19.18 385.438 18.1644 385.889 17.1489C386.25 16.3434 386.973 15.8181 387.755 15.8181C389.81 15.8181 389.79 18.0823 389.775 19.8628L389.775 19.8653C389.774 20.0144 389.772 20.16 389.772 20.3007V29.3369C389.808 29.6215 390.048 29.8419 390.347 29.8614H393.58C393.898 29.8614 394.161 29.6322 394.198 29.3369V18.8648C394.198 17.2541 394.198 15.0126 393.355 13.6819C392.452 12.2459 391.036 11.7207 389.592 11.7207C387.364 11.7207 386.1 12.8061 385.197 15.0825H385.136V12.5369C385.077 12.2787 384.845 12.0852 384.563 12.0708L381.572 12.0716C381.247 12.0716 380.979 12.3107 380.952 12.6148L380.957 29.2637C380.957 29.5826 381.213 29.8404 381.536 29.8614ZM396.219 28.5409C396.219 27.7034 396.93 27.0244 397.807 27.0244C398.684 27.0244 399.394 27.7034 399.394 28.5409C399.394 29.378 398.684 30.0567 397.807 30.0567C396.93 30.0567 396.219 29.378 396.219 28.5409ZM421.006 27.9373C422.511 27.888 423.699 26.9505 424.402 25.3832C425.033 23.9826 425.154 22.3715 425.154 20.8307C425.154 19.1495 424.973 17.3987 424.191 15.9627C423.49 14.7066 422.281 13.9114 421.001 13.8636C419.575 13.9162 418.305 14.885 417.661 16.3827C417.09 17.6786 416.909 19.3948 416.909 20.8307C416.909 22.4414 417.12 24.2974 417.782 25.6984C418.425 27.0255 419.666 27.8899 421.006 27.9373ZM420.669 30.2163C416.093 30.2163 414.046 25.5233 414.046 20.8307C414.046 15.8924 416.455 11.6203 421.06 11.6203L421.179 11.6214L421.304 11.6203C425.789 11.6203 428.017 16.1727 428.017 20.8653C428.017 25.8386 425.548 30.2163 420.912 30.2163L420.794 30.2148L420.669 30.2163ZM409.95 24.0021C409.502 26.1479 408.424 27.8031 406.37 27.8678C403.279 27.7652 402.545 23.6313 402.545 20.7954C402.545 17.8577 403.425 14.0328 406.516 13.9335C408.456 13.9978 409.621 15.6188 409.963 17.6576C410.008 17.9445 410.204 18.2031 410.499 18.2454L411.923 18.2623C412.22 18.2277 412.473 17.9905 412.473 17.7164C411.984 14.0644 409.733 11.6203 406.579 11.6203L406.455 11.6214L406.335 11.6203C401.789 11.6203 399.802 16.3478 399.802 20.9705C399.802 25.6285 401.759 30.2163 406.305 30.2163L406.423 30.2148L406.549 30.2163C409.671 30.2163 411.863 27.7365 412.49 24.0867C412.514 23.7861 412.22 23.5397 411.9 23.5228L410.541 23.5287C410.241 23.5287 410.037 23.7347 409.95 24.0021Z" fill="#969696"/>
<path fill-rule="evenodd" clip-rule="evenodd" d="M494.284 6.79932V2.50336H490.598C490.598 2.50336 488.064 2.35004 486.145 4.11431C484.225 5.87886 484.686 8.0267 484.686 8.0267V11.9394H481V16.5425H484.532V29.6604H489.754V16.602H493.747L494.284 11.9394H489.754V8.56387C489.754 6.49241 491.904 6.79932 491.904 6.79932H494.284ZM503.212 26.0933C505.079 26.0933 506.593 24.4204 506.593 22.6409V19.2656C506.593 17.4861 505.079 15.8135 503.212 15.8135C501.344 15.8135 499.83 17.4861 499.83 19.2656V22.6409C499.83 24.4204 501.344 26.0933 503.212 26.0933ZM506.874 14.3569V12.0161H511.907V29.6604H506.877L506.912 27.3845C505.577 29.1654 503.698 30.274 501.617 30.274C497.567 30.274 494.284 26.6685 494.284 20.8956C494.284 15.0847 497.567 11.5172 501.617 11.5172C503.679 11.5172 505.542 12.6054 506.874 14.3569ZM553.272 19.1506C553.272 17.3711 554.786 15.6982 556.653 15.6982C558.521 15.6982 560.035 17.3711 560.035 19.1506V22.5259C560.035 24.3054 558.521 25.978 556.653 25.978C554.786 25.978 553.272 24.3054 553.272 22.5259V19.1506ZM552.991 29.7754V27.4346C554.323 29.1861 556.186 30.2743 558.248 30.2743C562.298 30.2743 565.581 26.7068 565.581 20.8956C565.581 15.123 562.298 11.5172 558.248 11.5172C556.167 11.5172 554.288 12.6261 552.953 14.4067L552.988 2.75406L547.757 3.34206V29.6949L552.991 29.7754ZM519.24 21.0084C519.24 26.2251 523.271 25.9948 523.271 25.9948C525.997 26.0332 526.957 25.0744 526.957 25.0744L528.224 28.8718C526.035 30.4827 519.432 30.751 516.475 28.0277C513.917 25.6714 513.918 21.8525 513.965 20.8657C513.918 19.8789 513.917 16.0603 516.475 13.7037C519.432 10.9803 526.035 11.2489 528.224 12.8599L526.957 16.6573C526.957 16.6573 525.997 15.6982 523.271 15.7368C523.271 15.7368 519.24 15.5065 519.24 20.7232V21.0084ZM534.252 19.1888C534.252 19.1888 533.983 15.2764 537.515 15.2764C541.047 15.2764 540.778 19.1888 540.778 19.1888H534.252ZM545.578 22.756C545.578 22.756 547.689 11.709 537.592 11.6492C527.494 11.5891 528.953 21.6436 528.953 21.6436C529.184 27.7424 531.986 29.507 536.786 30.0822C541.585 30.6577 545.232 28.8165 545.232 28.8165L544.119 25.2493C544.119 25.2493 540.241 26.4384 537.17 26.1698C534.098 25.9015 534.328 22.756 534.328 22.756H545.578ZM575.94 26C577.857 26 579.41 24.3271 579.41 22.5476V19.1723C579.41 17.3928 577.857 15.7202 575.94 15.7202C574.024 15.7202 572.471 17.3928 572.471 19.1723V22.5476C572.471 24.3271 574.024 26 575.94 26ZM567.2 21.016C567.2 15.7202 569.412 11.758 575.985 11.758C582.261 11.758 584.771 15.9031 584.771 21.016C584.771 27.0172 580.837 30.2742 575.985 30.2742C570.051 30.2742 567.2 26.6345 567.2 21.016ZM598.811 22.5476C598.811 24.3271 597.257 26 595.341 26C593.425 26 591.871 24.3271 591.871 22.5476V19.1723C591.871 17.3928 593.425 15.7202 595.341 15.7202C597.257 15.7202 598.811 17.3928 598.811 19.1723V22.5476ZM595.386 11.758C588.812 11.758 586.6 15.7202 586.6 21.016C586.6 26.6345 589.451 30.2742 595.386 30.2742C600.238 30.2742 604.171 27.0172 604.171 21.016C604.171 15.9031 601.661 11.758 595.386 11.758ZM616.849 20.854L622.593 29.7374H617.147L611.361 20.7002V29.7374H606.086V3.21459L611.361 2.6622V19.9227L616.722 11.9704H622.338L616.849 20.854Z" fill="#969696"/>
<path fill-rule="evenodd" clip-rule="evenodd" d="M675.83 17.4674C675.83 17.4962 675.829 17.5321 675.828 17.5548H675.832C675.832 17.3781 675.831 17.4079 675.83 17.4674ZM675.825 17.5548C675.826 17.5887 675.827 17.5797 675.828 17.5548H675.825ZM660.872 32.0742C660.847 32.0733 660.837 32.0725 660.872 32.0713C660.903 32.0704 660.967 32.0693 661.082 32.0681C665.374 32.0235 669.042 30.6591 671.668 28.153C674.296 25.6449 675.823 22.051 675.823 17.5548H675.825C675.824 17.5246 675.823 17.4609 675.822 17.3449L675.797 15.1501H673.563H660.997V19.5739H671.159C670.817 21.8542 669.884 23.6835 668.497 25.0078C666.719 26.7046 664.137 27.6293 661.047 27.6614C660.842 27.6636 660.878 27.6627 660.948 27.6609H660.948H660.948C661.049 27.6583 661.222 27.6539 660.872 27.6539C657.727 27.6539 654.896 26.4154 652.853 24.4133C650.801 22.4026 649.536 19.6162 649.536 16.5336C649.536 13.4522 650.8 10.669 652.851 8.66058C654.894 6.66029 657.725 5.42377 660.872 5.42377C662.356 5.42377 663.771 5.69884 665.067 6.19942C666.421 6.72203 667.643 7.48406 668.676 8.43043L671.777 5.21623C670.319 3.88087 668.611 2.81159 666.733 2.08638C664.917 1.38551 662.94 1 660.872 1C656.48 1 652.516 2.73826 649.644 5.55015C646.771 8.36348 645 12.2472 645 16.5336C645 20.82 646.771 24.7072 649.645 27.5238C652.516 30.3374 656.48 32.0777 660.872 32.0777C661.061 32.0777 661.029 32.0772 660.966 32.0761C660.935 32.0756 660.896 32.075 660.872 32.0742ZM687.779 16.1068C689.408 16.1068 690.881 16.7697 691.945 17.8413C693.011 18.9146 693.671 20.4051 693.671 22.0584C693.671 23.7117 693.011 25.2024 691.945 26.2755C690.881 27.3471 689.408 28.01 687.779 28.01C686.15 28.01 684.677 27.3471 683.612 26.2755C682.546 25.2024 681.887 23.7117 681.887 22.0584C681.887 20.4051 682.546 18.9146 683.612 17.8413C684.677 16.7697 686.15 16.1068 687.779 16.1068ZM695.06 15.0453C693.195 13.2433 690.62 12.1285 687.779 12.1285C684.937 12.1285 682.362 13.2433 680.497 15.0453C678.634 16.8459 677.481 19.3259 677.481 22.0584C677.481 24.7908 678.634 27.2708 680.497 29.0714C682.362 30.8737 684.937 31.9882 687.779 31.9882C690.62 31.9882 693.195 30.8737 695.06 29.0714C696.924 27.2708 698.076 24.7908 698.076 22.0584C698.076 19.3259 696.924 16.8459 695.06 15.0453ZM714.093 17.8413C713.028 16.7697 711.555 16.1068 709.926 16.1068C708.297 16.1068 706.824 16.7697 705.76 17.8413C704.694 18.9146 704.034 20.4051 704.034 22.0584C704.034 23.7117 704.694 25.2024 705.76 26.2755C706.824 27.3471 708.297 28.01 709.926 28.01C711.555 28.01 713.028 27.3471 714.093 26.2755C715.159 25.2024 715.818 23.7117 715.818 22.0584C715.818 20.4051 715.159 18.9146 714.093 17.8413ZM709.926 12.1285C712.768 12.1285 715.343 13.2433 717.208 15.0453C719.071 16.8459 720.224 19.3259 720.224 22.0584C720.224 24.7908 719.071 27.2708 717.208 29.0714C715.343 30.8737 712.768 31.9882 709.926 31.9882C707.085 31.9882 704.51 30.8737 702.645 29.0714C700.781 27.2708 699.628 24.7908 699.628 22.0584C699.628 19.3259 700.781 16.8459 702.645 15.0453C704.51 13.2433 707.085 12.1285 709.926 12.1285ZM731.898 16.1068C733.449 16.1068 734.852 16.7697 735.866 17.8413C736.882 18.9146 737.51 20.4051 737.51 22.0584C737.51 23.7117 736.882 25.2024 735.866 26.2755C734.852 27.3471 733.449 28.1193 731.898 28.1193C728.595 28.1193 726.285 25.3995 726.285 22.0584C726.285 20.4051 726.913 18.9146 727.929 17.8413C728.943 16.7697 730.346 16.1068 731.898 16.1068ZM737.084 14.4169C735.573 12.9879 733.891 12.1285 731.119 12.1285C726.476 12.1285 721.802 16.5393 721.802 22.0584C721.802 24.7908 722.845 27.2708 724.531 29.0714C726.219 30.8737 728.979 31.9882 731.55 31.9882C733.81 31.9882 735.55 31.1271 737.084 29.6949V31.8688C737.084 35.0897 734.372 37.0445 732.21 37.0445C729.159 37.0445 727.528 35.8291 726.435 33.4703L722.574 35.1674C723.494 37.1532 724.835 38.563 726.407 39.5068C728.175 40.5677 730.196 40.9462 732.21 40.9462C734.416 40.9462 736.643 40.0387 738.302 38.6007C740.023 37.1079 741.294 34.2462 741.294 31.6077V12.6885H737.084V14.4169ZM744.016 31.4193H748.364V2.27838H744.016V31.4193ZM765.458 25.3786C763.172 29.0931 757.142 29.0493 755.43 25.0731C758.065 24.0385 760.692 22.9916 763.319 21.9447C765.272 21.1663 767.225 20.388 769.181 19.6148C767.663 15.8012 765.587 13.607 763.03 12.7012C759.092 11.3064 755.275 12.6067 752.8 15.1641C749.766 18.2992 748.83 24.9122 753.207 29.2221C754.999 30.9858 757.396 32.0745 760.375 32.0713C763.721 32.0534 766.792 30.6424 768.9 27.629L765.458 25.3786ZM763.997 18.0754L754.738 21.7119C754.602 19.7995 755.656 18.1073 756.86 17.116C759.989 15.0339 762.363 16.0261 763.997 18.0754Z" fill="#969696"/>
<path fill-rule="evenodd" clip-rule="evenodd" d="M939.132 0.248779H908.514C907.051 0.248779 905.862 1.40589 905.862 2.83187V33.5111C905.862 34.9385 907.051 36.0971 908.514 36.0971H939.132C940.598 36.0971 941.792 34.9385 941.792 33.5111V2.83187C941.792 1.40589 940.598 0.248779 939.132 0.248779ZM913.855 5.18424C915.559 5.18424 916.943 6.56566 916.943 8.26622C916.943 9.96829 915.559 11.3497 913.855 11.3497C912.147 11.3497 910.764 9.96829 910.764 8.26622C910.764 6.56566 912.147 5.18424 913.855 5.18424ZM916.518 30.7963H911.189V13.6883H916.518V30.7963ZM919.861 13.6883H924.972V16.026H925.043C925.755 14.6809 927.493 13.2631 930.086 13.2631C935.482 13.2631 936.478 16.8067 936.478 21.4125V30.7964H931.153V22.4767C931.153 20.4929 931.116 17.9409 928.384 17.9409C925.611 17.9409 925.185 20.102 925.185 22.3333V30.7964H919.861V13.6883ZM820.916 5.17657C822.622 5.17657 824.006 6.55799 824.006 8.25856C824.006 9.96211 822.622 11.3395 820.916 11.3395C819.212 11.3395 817.828 9.96211 817.828 8.25856C817.828 6.55799 819.212 5.17657 820.916 5.17657ZM818.252 30.7887H823.58V13.6807H818.252V30.7887ZM800 5.55066V30.7956H815.804V25.6929H805.543V5.55066H800ZM851.173 5.5489H845.848V30.7955H851.173V22.3385H851.243L856.895 30.7955H863.589L856.748 21.5941L863.735 13.6731H857.206L851.173 20.6369V5.5489ZM826.526 13.6831H831.64V16.0217H831.711C832.421 14.6752 834.161 13.2584 836.753 13.2584C842.152 13.2584 843.146 16.8015 843.146 21.4068V30.7886H837.819V22.4705C837.819 20.4856 837.782 17.9354 835.047 17.9354C832.278 17.9354 831.853 20.0973 831.853 22.3286V30.7886H826.526V13.6831ZM872.176 31.2301C874.948 31.2301 877.752 29.9889 879.457 27.827L875.729 25.0985C874.84 26.3032 873.669 27.1895 871.929 27.1895C869.868 27.1895 868.339 25.8785 867.916 23.8585H880.274V22.1931C880.274 16.7017 877.152 13.1587 872.176 13.1587C866.851 13.1587 862.589 16.7017 862.589 22.1931C862.589 27.6851 866.851 31.2301 872.176 31.2301ZM871.678 16.9856C873.598 16.9856 874.983 18.474 874.948 20.2458H867.916C868.056 18.5801 869.336 16.9856 871.678 16.9856ZM900.535 30.7862H895.633V28.5175H895.564C894.744 29.7573 892.686 31.2111 890.271 31.2111C885.155 31.2111 881.782 27.5275 881.782 22.318C881.782 17.5339 884.765 13.1402 889.666 13.1402C891.869 13.1402 893.929 13.7422 895.136 15.4076H895.206V5.54877H900.535V30.7862ZM891.369 17.8177C888.707 17.8177 887.11 19.5907 887.11 22.1753C887.11 24.7641 888.707 26.5334 891.369 26.5334C894.034 26.5334 895.633 24.7641 895.633 22.1753C895.633 19.5907 894.034 17.8177 891.369 17.8177Z" fill="#969696"/>
<path fill-rule="evenodd" clip-rule="evenodd" d="M35.2265 11.8821H29.6493V19.1302H23.8409V11.8821H18.2614V30.1192H23.8409V22.9447H29.6493V30.1192H35.2265V11.8821ZM54.6376 26.4558V11.8821H49.0578V30.1192H59.1462L59.9855 26.4558H54.6376ZM39.3537 30.1192H44.9319V11.8821H39.3537V30.1192ZM61.9735 30.1192H67.5507V11.8821H61.9735V30.1192ZM95.0596 16.5352C95.0596 15.5442 96.054 15.0851 97.6578 15.0851C99.4153 15.0851 101.327 15.4671 102.624 16.0033L102.168 12.0344C100.715 11.7297 99.4153 11.5 97.0472 11.5C92.5386 11.5 89.4823 13.2748 89.4823 16.9956C89.4823 23.4029 98.1959 22.1073 98.1959 25.0828C98.1959 26.2264 97.3525 26.8353 95.2886 26.8353C93.4579 26.8353 90.6272 26.2264 88.948 25.3874L89.5599 29.5861C91.2401 30.1954 93.5321 30.5 95.3671 30.5C100.027 30.5 103.849 28.9734 103.849 24.3939C103.849 18.2915 95.0596 19.4361 95.0596 16.5352ZM79.3214 25.7694C84.5145 25.7694 87.801 23.097 87.801 18.4439C87.801 13.3312 84.2868 11.5 78.5544 11.5C76.3393 11.5 73.6632 11.6523 71.7528 11.882V30.1192H77.3338V25.7694H79.3214ZM82.2976 18.52C82.2976 20.8853 81.1543 22.4877 78.2494 22.4877H77.3338V14.9538C77.6577 14.9349 77.963 14.9349 78.2494 14.9349C80.9994 14.9349 82.2976 16.2309 82.2976 18.52ZM7.56489 25.7694C12.7605 25.7694 16.0457 23.097 16.0457 18.4439C16.0457 13.3312 12.5302 11.5 6.80067 11.5C4.58372 11.5 1.90913 11.6523 0 11.882V30.1192H5.57692V25.7694H7.56489ZM10.5462 18.52C10.5462 20.8853 9.39904 22.4877 6.49546 22.4877H5.57702V14.9538C5.90369 14.9349 6.209 14.9349 6.49546 14.9349C9.24419 14.9349 10.5462 16.2309 10.5462 18.52Z" fill="#969696"/>
</svg>
