<svg width="404" height="31" viewBox="0 0 404 31" fill="none" xmlns="http://www.w3.org/2000/svg">
<path fill-rule="evenodd" clip-rule="evenodd" d="M52.4114 2.15343H48.6011V6.81313H46.5482V10.1755H48.6011V21.945H52.4114V10.1755H54.4954V6.81313H52.4114V2.15343ZM42.9771 0C41.5777 0 40.4764 1.09151 40.4764 2.50745C40.4764 3.89322 41.5777 4.98532 42.9771 4.98532C44.4351 4.98532 45.537 3.89322 45.537 2.50745C45.537 1.09151 44.4351 0 42.9771 0ZM103.543 6.46029C102.889 6.46029 102.382 5.95862 102.382 5.30916C102.382 4.68973 102.889 4.18806 103.543 4.18806C104.169 4.18806 104.674 4.68973 104.674 5.30916C104.674 5.95862 104.169 6.46029 103.543 6.46029ZM103.543 4.01201C102.8 4.01201 102.205 4.6017 102.205 5.30916C102.205 6.04664 102.8 6.63693 103.543 6.63693C104.258 6.63693 104.853 6.04664 104.853 5.30916C104.853 4.6017 104.258 4.01201 103.543 4.01201ZM58.9286 12.8018C59.4348 10.7961 60.9828 9.67505 62.9768 9.67505C64.9714 9.67505 66.4585 10.766 66.9354 12.8018H58.9286ZM63.0655 6.34149C58.4832 6.34149 55.0003 9.82284 55.0003 14.4535C55.0003 19.0251 58.1857 22.3878 63.1253 22.3878C65.8634 22.3878 68.3045 21.3853 70.0903 19.4967L67.5305 16.9904C66.2802 18.1706 64.9409 19.0251 63.2146 19.0251C61.1319 19.0251 59.5541 17.8449 59.0187 15.8695H70.8929V14.9552C70.8929 9.79266 67.6797 6.34149 63.0655 6.34149ZM96.7862 6.34149C94.9115 6.34149 93.3047 7.0488 92.1735 8.25911V0.413645H88.3633V21.945H92.1735V13.7159C92.1735 11.5336 93.5729 10.0285 95.8935 10.0285C98.0665 10.0285 99.2573 11.3557 99.2573 13.7159V21.945H103.067V13.0376C103.067 8.84954 100.417 6.34149 96.7862 6.34149ZM103.245 5.28016V4.80734H103.543C103.782 4.80734 103.871 4.8967 103.871 5.04434C103.871 5.19154 103.782 5.28016 103.543 5.28016H103.245ZM104.049 5.04434C104.049 4.7495 103.84 4.6307 103.543 4.6307H103.067V5.98747H103.245V5.4568H103.543L103.871 5.98747H104.078L103.722 5.42795C103.931 5.39718 104.049 5.28016 104.049 5.04434ZM80.3575 9.99948C81.9646 9.99948 83.2747 10.825 84.2866 11.9763L86.9352 9.3802C85.4475 7.52162 83.0957 6.34149 80.418 6.34149C75.8051 6.34149 72.1732 9.82284 72.1732 14.3642C72.1732 18.9069 75.8051 22.3878 80.418 22.3878C83.0957 22.3878 85.4475 21.2073 86.9352 19.3507L84.2866 16.7546C83.3044 17.8753 81.9646 18.7302 80.3284 18.7302C77.8872 18.7302 76.012 16.8428 76.012 14.3642C76.012 11.8863 77.8872 9.99948 80.3575 9.99948ZM41.1018 21.945H44.9121V6.81313H41.1018V21.945ZM13.542 18.7302C11.1009 18.7302 9.16585 16.8138 9.16585 14.3353C9.16585 11.8863 11.1009 9.99948 13.542 9.99948C16.0118 9.99948 17.9467 11.8863 17.9467 14.3642C17.9467 16.8428 16.0118 18.7302 13.542 18.7302ZM13.542 6.34149C8.92808 6.34149 5.29729 9.82284 5.29729 14.3642C5.29729 18.9069 8.92808 22.3878 13.542 22.3878C18.1548 22.3878 21.7855 18.9069 21.7855 14.3642C21.7855 9.82284 18.1548 6.34149 13.542 6.34149ZM0 21.945H3.81021V0.413645H0V21.945ZM31.3396 18.7302C28.8997 18.7302 26.9648 16.8138 26.9648 14.3353C26.9648 11.8863 28.8997 9.99948 31.3396 9.99948C33.8101 9.99948 35.745 11.8863 35.745 14.3642C35.745 16.8428 33.8101 18.7302 31.3396 18.7302ZM39.4353 9.82284V6.81313H34.0772C33.215 6.51947 32.2926 6.34149 31.3396 6.34149C26.7269 6.34149 23.0963 9.82284 23.0963 14.3642C23.0963 18.9069 26.7269 22.3878 31.3396 22.3878C35.9525 22.3878 39.5845 18.9069 39.5845 14.3642C39.5845 12.8306 39.167 11.3268 38.334 10.2057L39.4353 9.82284ZM31.3396 27.3136C28.8997 27.3136 26.9649 25.4263 26.9649 22.9781H23.0963C23.0963 27.5206 26.7269 31 31.3396 31C35.9525 31 39.5845 27.5206 39.5845 22.9781H35.7145C35.7145 25.4263 33.7795 27.3136 31.3396 27.3136Z" fill="#969696"/>
<path fill-rule="evenodd" clip-rule="evenodd" d="M257.775 18.0031C258.011 18.1306 258.313 18.1179 258.523 17.9291L258.531 17.9359C259.162 17.3704 260.312 16.3664 260.959 15.8214C261.217 15.6098 261.171 15.2653 260.969 14.9756C260.907 14.8899 260.845 14.806 260.783 14.7225C260.266 14.0227 259.774 13.358 259.774 12.0251V7.06473C259.774 6.89399 259.775 6.7244 259.776 6.55611C259.787 4.65225 259.797 2.91534 258.382 1.58543C257.167 0.413511 255.153 0 253.612 0C250.599 0 247.237 1.13111 246.532 4.8751C246.457 5.27272 246.745 5.48183 247.004 5.54033L250.073 5.87439C250.36 5.85995 250.568 5.57609 250.623 5.28934C250.887 3.99969 251.961 3.37743 253.168 3.37743C253.82 3.37743 254.561 3.61868 254.946 4.20445C255.344 4.79086 255.337 5.57077 255.332 6.27177C255.331 6.35348 255.33 6.43412 255.33 6.51326V6.92677C255.045 6.95888 254.747 6.98932 254.44 7.02067C252.766 7.19135 250.828 7.38898 249.377 8.02971C247.392 8.8914 246 10.6487 246 13.2334C246 16.5415 248.073 18.1956 250.739 18.1956C252.991 18.1956 254.222 17.6615 255.96 15.8814C256.048 16.0094 256.127 16.1273 256.201 16.2384C256.612 16.8532 256.884 17.2586 257.775 18.0031ZM255.33 10.3289C255.33 10.2751 255.33 10.2209 255.33 10.1662V9.47718C253.04 9.47718 250.621 9.9705 250.621 12.682C250.621 14.0601 251.332 14.9908 252.546 14.9908C253.435 14.9908 254.235 14.4397 254.738 13.5437C255.333 12.4893 255.332 11.498 255.33 10.3289ZM300.033 17.9291C299.823 18.1179 299.521 18.1306 299.285 18.0031C298.393 17.258 298.122 16.8526 297.71 16.2369L297.71 16.2367C297.636 16.1261 297.557 16.0087 297.47 15.8814C295.731 17.6615 294.5 18.1956 292.249 18.1956C289.583 18.1956 287.509 16.5415 287.509 13.2334C287.509 10.6487 288.902 8.8914 290.886 8.02971C292.338 7.38897 294.276 7.19134 295.95 7.02065C296.257 6.98931 296.556 6.95887 296.84 6.92677V6.51326C296.84 6.43449 296.841 6.35424 296.842 6.27293C296.847 5.57162 296.854 4.79118 296.455 4.20445C296.07 3.61868 295.33 3.37743 294.678 3.37743C293.47 3.37743 292.397 3.99969 292.133 5.28934C292.078 5.57609 291.87 5.85995 291.583 5.87439L288.514 5.54033C288.255 5.48183 287.967 5.27272 288.041 4.8751C288.747 1.13111 292.109 0 295.123 0C296.663 0 298.677 0.413511 299.891 1.58543C301.306 2.91513 301.296 4.65169 301.285 6.55518V6.55522C301.284 6.7238 301.283 6.89369 301.283 7.06473V12.0251C301.283 13.357 301.775 14.0217 302.292 14.721L302.292 14.7212C302.354 14.8051 302.417 14.8895 302.479 14.9756C302.681 15.2653 302.727 15.6098 302.468 15.8214C301.822 16.3664 300.673 17.3704 300.04 17.9359L300.033 17.9291ZM296.84 10.1662L296.841 10.3271C296.842 11.4969 296.843 12.4888 296.248 13.5437C295.744 14.4397 294.945 14.9908 294.056 14.9908C292.841 14.9908 292.131 14.0601 292.131 12.682C292.131 9.9705 294.55 9.47718 296.84 9.47718V10.1662ZM383.25 17.3866C383.25 17.7066 383.512 17.9641 383.841 17.9742H385.226C385.543 17.9536 385.794 17.7005 385.794 17.3873L385.795 7.96831C385.795 6.52409 385.943 5.11418 386.711 3.97946C387.308 3.08563 388.317 2.31928 389.314 2.2633C390.275 2.31422 391.193 2.95562 391.703 3.94479C392.147 4.80468 392.206 5.9394 392.206 6.90221L392.212 17.3866C392.212 17.7066 392.475 17.9641 392.804 17.9742H394.187C394.477 17.9551 394.711 17.7434 394.751 17.4726V8.55265L394.751 8.38986C394.75 6.81777 394.749 5.58319 395.578 4.21999C396.234 3.12499 397.248 2.31856 398.354 2.2633C399.344 2.3135 400.264 2.99137 400.747 4.08239C401.173 5.04253 401.168 6.14211 401.162 7.20516V7.20649V7.20782V7.20914C401.162 7.32512 401.161 7.44065 401.161 7.55552V17.4668C401.201 17.7492 401.447 17.9648 401.746 17.9742H403.137C403.455 17.9536 403.706 17.7005 403.706 17.3873L403.706 7.55552L403.706 7.37638C403.707 5.79871 403.709 3.96077 402.997 2.56955C402.228 1.05671 400.75 0.0595911 399.214 0.0595911L399.087 0.0613969L398.974 0.0595911C396.8 0.0595911 395.151 1.61938 394.277 3.81623C393.715 1.59121 392.204 0.0595911 390.14 0.0595911L390.022 0.0613969L389.901 0.0595911C387.954 0.0595911 386.414 1.53884 385.588 3.42691V1.04407C385.562 0.741072 385.299 0.505967 384.979 0.505967L383.817 0.506328C383.514 0.52583 383.273 0.755518 383.25 1.04371V17.3866ZM264.005 17.9699H267.171C267.509 17.9699 267.782 17.708 267.782 17.3816L267.783 8.72022L267.783 8.51474C267.78 6.64538 267.776 4.21565 269.97 4.21565C271.989 4.21565 271.955 6.38147 271.927 8.14299V8.14314V8.14328V8.14342V8.14357V8.14371V8.14385V8.14399V8.14413C271.924 8.34252 271.921 8.53577 271.921 8.72022L271.924 17.383C271.924 17.6961 272.175 17.9493 272.493 17.9699H275.655C275.993 17.9699 276.266 17.708 276.266 17.3816V8.72022L276.266 8.61704L276.266 8.50346C276.264 7.58787 276.261 6.35438 276.562 5.59125C276.887 4.76567 277.685 4.24996 278.453 4.24996C279.37 4.24996 280.079 4.55946 280.315 5.65987C280.435 6.18771 280.419 7.41149 280.409 8.22473V8.22489V8.22504V8.2252V8.22535V8.22551V8.22567V8.22582V8.22597C280.406 8.41877 280.404 8.58844 280.404 8.72022L280.405 17.383C280.405 17.6961 280.656 17.9493 280.973 17.9699H284.136C284.473 17.9699 284.747 17.708 284.747 17.3816L284.749 7.06978C284.749 6.81691 284.754 6.55902 284.758 6.29871L284.758 6.29828C284.784 4.75341 284.811 3.12304 283.951 1.94621C283.064 0.708205 281.616 0.158181 280.286 0.158181C278.424 0.158181 276.68 1.12099 275.912 3.18422C275.025 1.12099 273.783 0.158181 271.803 0.158181C269.852 0.158181 268.404 1.12099 267.635 3.18422H267.576V1.05057C267.557 0.752626 267.309 0.517881 267 0.501991L264.052 0.502713C263.714 0.502713 263.441 0.764183 263.441 1.09102L263.438 17.4318C263.462 17.7221 263.703 17.95 264.005 17.9699ZM305.137 3.3861V1.05129C305.139 0.695926 305.405 0.459014 305.726 0.459737L316.134 0.458653C316.467 0.458653 316.734 0.702065 316.735 1.0484L316.734 3.05095C316.732 3.38682 316.45 3.82525 315.95 4.52082L310.559 12.2605C312.56 12.2136 314.677 12.5144 316.496 13.5422C316.906 13.7737 317.016 14.1172 317.048 14.4538V16.9449C317.048 17.2884 316.674 17.6856 316.282 17.4791C313.078 15.7918 308.827 15.6069 305.285 17.4993C304.923 17.6932 304.544 17.3018 304.544 16.9583V14.5899C304.544 14.2111 304.551 13.5628 304.931 12.985L311.177 3.97476L305.739 3.97404C305.406 3.97404 305.14 3.73569 305.137 3.3861ZM305.013 21.1694C306.934 20.9384 311.185 20.4271 311.945 21.4044C312.705 22.3827 311.101 26.4114 310.383 28.215L310.381 28.2188C310.164 28.7641 310.63 28.9841 311.121 28.5713C314.31 25.8891 315.134 20.2686 314.481 19.4567C313.833 18.6528 308.258 17.9587 304.855 20.3617C304.332 20.7312 304.422 21.2408 305.002 21.1707L305.013 21.1694ZM287.488 31C294.908 31 303.527 28.654 309.471 24.2433C310.454 23.5135 309.612 22.4185 308.607 22.8475C301.943 25.6894 294.7 27.0642 288.112 27.0642C278.345 27.0642 268.889 24.3697 261.243 19.8955C260.574 19.504 260.078 20.1945 260.634 20.6994C267.722 27.1347 277.087 31 287.488 31ZM325.724 3.49336C323.389 3.49336 323.241 6.6913 323.241 8.68555L323.241 8.75491C323.241 10.7772 323.24 14.9442 325.695 14.9442C328.148 14.9442 328.266 11.5054 328.266 9.40784C328.266 8.0326 328.207 6.3818 327.793 5.07518C327.438 3.94046 326.729 3.49336 325.724 3.49336ZM325.695 0.158181C330.394 0.158181 332.936 4.21565 332.936 9.37353C332.936 14.3591 330.129 18.314 325.695 18.314C321.083 18.314 318.571 14.2562 318.571 9.20162C318.571 4.11236 321.113 0.158181 325.695 0.158181ZM335.876 17.9699H339.031C339.368 17.9699 339.642 17.708 339.647 17.3816V8.58262C339.647 7.48221 339.707 6.48509 340.15 5.48796C340.504 4.69706 341.214 4.18134 341.982 4.18134C344 4.18134 343.981 6.40438 343.965 8.15263L343.965 8.1549C343.964 8.30134 343.963 8.44445 343.963 8.58262V17.4549C343.997 17.7344 344.234 17.9507 344.527 17.9699H347.701C348.014 17.9699 348.272 17.7449 348.308 17.4549V7.17271C348.308 5.59125 348.308 3.39043 347.48 2.08381C346.594 0.673896 345.204 0.158181 343.786 0.158181C341.598 0.158181 340.357 1.22392 339.47 3.45905H339.411V0.959562C339.353 0.706038 339.124 0.516076 338.848 0.501991L335.911 0.502713C335.592 0.502713 335.329 0.737458 335.303 1.03613L335.308 17.383C335.308 17.6961 335.559 17.9493 335.876 17.9699ZM350.293 16.6734C350.293 15.851 350.991 15.1844 351.852 15.1844C352.713 15.1844 353.41 15.851 353.41 16.6734C353.41 17.4953 352.713 18.1616 351.852 18.1616C350.991 18.1616 350.293 17.4953 350.293 16.6734ZM374.63 16.0807C376.108 16.0323 377.274 15.1118 377.964 13.5729C378.584 12.1977 378.703 10.6159 378.703 9.10303C378.703 7.45223 378.525 5.73318 377.757 4.32327C377.069 3.08996 375.882 2.30916 374.625 2.26221C373.225 2.31386 371.978 3.26511 371.346 4.7357C370.785 6.00801 370.607 7.69312 370.607 9.10303C370.607 10.6845 370.814 12.5068 371.465 13.8824C372.096 15.1854 373.314 16.0341 374.63 16.0807ZM374.299 18.3184C369.806 18.3184 367.797 13.7105 367.797 9.10303C367.797 4.25429 370.161 0.0595911 374.683 0.0595911L374.8 0.0606746L374.922 0.0595911C379.327 0.0595911 381.514 4.52949 381.514 9.13698C381.514 14.02 379.09 18.3184 374.538 18.3184L374.422 18.3169L374.299 18.3184ZM363.774 12.2168C363.335 14.3237 362.276 15.9489 360.259 16.0125C357.224 15.9117 356.504 11.8528 356.504 9.06836C356.504 6.18389 357.367 2.42834 360.402 2.33083C362.308 2.39403 363.451 3.9856 363.788 5.98743C363.832 6.26912 364.024 6.52301 364.314 6.56454L365.712 6.58115C366.003 6.54721 366.252 6.31427 366.252 6.04521C365.772 2.4594 363.561 0.0595911 360.464 0.0595911L360.343 0.0606746L360.225 0.0595911C355.762 0.0595911 353.811 4.70139 353.811 9.24027C353.811 13.8138 355.732 18.3184 360.196 18.3184L360.311 18.3169L360.435 18.3184C363.501 18.3184 365.653 15.8835 366.269 12.2999C366.292 12.0048 366.003 11.7629 365.689 11.7463L364.355 11.752C364.061 11.752 363.86 11.9543 363.774 12.2168Z" fill="#969696"/>
<path fill-rule="evenodd" clip-rule="evenodd" d="M147.503 12.7794C147.502 12.8018 147.502 12.8296 147.501 12.8472H147.504C147.504 12.7101 147.504 12.7332 147.503 12.7794ZM147.501 12.8472C147.501 12.8666 147.5 12.8736 147.499 12.8472L147.497 12.8472C147.497 16.3365 146.333 19.1255 144.33 21.072C142.328 23.0168 139.531 24.0756 136.26 24.1102C136.172 24.1111 136.123 24.112 136.1 24.1127C136.073 24.1136 136.08 24.1143 136.1 24.1149C136.118 24.1155 136.148 24.116 136.171 24.1164H136.171C136.22 24.1172 136.244 24.1176 136.1 24.1176C132.752 24.1176 129.73 22.7671 127.541 20.5836C125.35 18.3979 124 15.3812 124 12.0548C124 8.72836 125.35 5.71438 127.54 3.53111C129.729 1.34897 132.752 0 136.1 0C137.676 0 139.183 0.299171 140.568 0.843076C141.999 1.40588 143.301 2.23568 144.413 3.27198L142.049 5.76634C141.261 5.03191 140.33 4.44054 139.298 4.03498C138.31 3.64651 137.231 3.43304 136.1 3.43304C133.701 3.43304 131.542 4.39263 129.985 5.94495C128.422 7.50356 127.458 9.66343 127.458 12.0548C127.458 14.447 128.422 16.6094 129.986 18.1698C131.544 19.7234 133.702 20.6846 136.1 20.6846C136.367 20.6846 136.235 20.688 136.158 20.69C136.104 20.6914 136.077 20.6921 136.233 20.6905C138.589 20.6655 140.557 19.9479 141.912 18.6311C142.97 17.6034 143.681 16.1838 143.942 14.4142H136.195V10.9811H145.774H147.478L147.496 12.6844C147.497 12.7744 147.498 12.8238 147.499 12.8472L147.501 12.8472ZM156.611 11.7235C157.853 11.7235 158.976 12.238 159.788 13.0696C160.6 13.9025 161.103 15.0592 161.103 16.3422C161.103 17.6253 160.6 18.7821 159.788 19.6149C158.976 20.4465 157.853 20.9609 156.611 20.9609C155.37 20.9609 154.247 20.4465 153.435 19.6149C152.622 18.7821 152.12 17.6253 152.12 16.3422C152.12 15.0592 152.622 13.9025 153.435 13.0696C154.247 12.238 155.37 11.7235 156.611 11.7235ZM162.162 10.8998C160.74 9.50134 158.778 8.63622 156.611 8.63622C154.445 8.63622 152.482 9.50134 151.061 10.8998C149.64 12.2971 148.761 14.2217 148.761 16.3422C148.761 18.4627 149.64 20.3873 151.061 21.7846C152.482 23.1833 154.445 24.0482 156.611 24.0482C158.778 24.0482 160.74 23.1833 162.162 21.7846C163.583 20.3873 164.462 18.4627 164.462 16.3422C164.462 14.2217 163.583 12.2971 162.162 10.8998ZM176.671 13.0696C175.86 12.238 174.737 11.7235 173.495 11.7235C172.253 11.7235 171.13 12.238 170.319 13.0696C169.506 13.9025 169.004 15.0592 169.004 16.3422C169.004 17.6253 169.506 18.7821 170.319 19.6149C171.13 20.4465 172.253 20.9609 173.495 20.9609C174.737 20.9609 175.86 20.4465 176.671 19.6149C177.484 18.7821 177.987 17.6253 177.987 16.3422C177.987 15.0592 177.484 13.9025 176.671 13.0696ZM173.495 8.63622C175.662 8.63622 177.624 9.50134 179.046 10.8998C180.467 12.2971 181.345 14.2217 181.345 16.3422C181.345 18.4627 180.467 20.3873 179.046 21.7846C177.624 23.1833 175.662 24.0482 173.495 24.0482C171.329 24.0482 169.366 23.1833 167.944 21.7846C166.524 20.3873 165.645 18.4627 165.645 16.3422C165.645 14.2217 166.524 12.2971 167.944 10.8998C169.366 9.50134 171.329 8.63622 173.495 8.63622ZM190.245 11.7235C191.427 11.7235 192.497 12.238 193.27 13.0696C194.044 13.9025 194.523 15.0592 194.523 16.3422C194.523 17.6253 194.044 18.7821 193.27 19.6149C192.497 20.4465 191.427 21.0457 190.245 21.0457C187.727 21.0457 185.966 18.9351 185.966 16.3422C185.966 15.0592 186.445 13.9025 187.219 13.0696C187.992 12.238 189.062 11.7235 190.245 11.7235ZM194.198 10.4121C193.046 9.30317 191.764 8.63622 189.651 8.63622C186.112 8.63622 182.549 12.0591 182.549 16.3422C182.549 18.4627 183.344 20.3873 184.629 21.7846C185.915 23.1833 188.02 24.0482 189.98 24.0482C191.702 24.0482 193.029 23.3799 194.198 22.2685V23.9555C194.198 26.4551 192.131 27.9721 190.483 27.9721C188.157 27.9721 186.913 27.0289 186.08 25.1983L183.137 26.5154C183.838 28.0564 184.861 29.1505 186.059 29.8829C187.406 30.7062 188.948 31 190.483 31C192.164 31 193.862 30.2957 195.126 29.1798C196.439 28.0213 197.408 25.8005 197.408 23.7529V9.0708H194.198V10.4121ZM199.483 23.6067H202.797V0.992074H199.483V23.6067ZM215.828 18.9188C214.086 21.8015 209.489 21.7675 208.184 18.6818C210.192 17.8789 212.195 17.0665 214.197 16.2541C215.686 15.65 217.175 15.0459 218.666 14.4459C217.51 11.4864 215.927 9.78357 213.978 9.08063C210.976 7.99822 208.065 9.0073 206.179 10.992C203.866 13.4249 203.152 18.5569 206.489 21.9016C207.855 23.2703 209.683 24.1152 211.954 24.1127C214.504 24.0988 216.845 23.0038 218.453 20.6653L215.828 18.9188ZM214.715 13.2513L207.657 16.0734C207.553 14.5892 208.356 13.276 209.274 12.5067C211.659 10.891 213.469 11.6609 214.715 13.2513Z" fill="#969696"/>
</svg>
